<svg xmlns="http://www.w3.org/2000/svg" xmlns:xlink="http://www.w3.org/1999/xlink" width="500" zoomAndPan="magnify" viewBox="0 0 375 374.999991" height="500" preserveAspectRatio="xMidYMid meet" version="1.0"><defs><g/><clipPath id="8a1ef1d586"><path d="M 133.140625 102 L 217 102 L 217 210 L 133.140625 210 Z M 133.140625 102 " clip-rule="nonzero"/></clipPath></defs><g clip-path="url(#8a1ef1d586)"><path fill="#00bed8" d="M 216.640625 157.28125 C 216.332031 157.988281 216.019531 158.691406 215.707031 159.394531 C 214.628906 159.496094 213.394531 159.625 212.226562 159.789062 C 209.164062 160.214844 205.316406 161.449219 197.65625 165.023438 C 190 168.597656 183.492188 176.894531 178.324219 184.425781 C 173.15625 191.957031 168.050781 208.738281 163.902344 209.378906 C 159.757812 210.015625 156.375 203.378906 154.777344 200.699219 C 153.183594 198.019531 149.226562 189.65625 147.441406 185.445312 C 145.65625 181.234375 140.378906 166.214844 137.570312 156.34375 C 134.761719 146.472656 133.660156 136.941406 133.402344 124.605469 C 133.148438 112.265625 139.953125 105.457031 145.738281 103.160156 C 145.816406 103.128906 145.890625 103.101562 145.972656 103.074219 C 148.96875 102.03125 154.195312 102.828125 160.320312 105.199219 C 166.355469 107.53125 173.261719 111.394531 179.75 116.519531 C 179.75 116.519531 168.5625 111.414062 160.777344 111.605469 C 152.992188 111.796875 147.570312 116.136719 144.761719 121.753906 C 141.953125 127.367188 141.316406 138.984375 142.335938 148.429688 C 143.355469 157.875 147.441406 172.425781 149.992188 180.339844 C 152.546875 188.253906 157.074219 195.464844 159.949219 197.378906 C 162.820312 199.292969 164.542969 196.421875 168.285156 188.339844 C 172.027344 180.253906 181.8125 171.066406 186.746094 167.066406 C 191.3125 163.363281 205.746094 158.167969 216.640625 157.28125 " fill-opacity="1" fill-rule="nonzero"/></g><path fill="#00bed8" d="M 145.398438 101.542969 C 149.566406 99.757812 159.605469 100.605469 169.21875 106.054688 C 178.832031 111.5 186.746094 116.179688 196.273438 113.542969 C 205.804688 110.902344 217.035156 107.328125 223.925781 111.074219 C 230.816406 114.816406 230.730469 124.859375 228.007812 135.070312 C 225.285156 145.28125 214.226562 171.148438 208.609375 179.234375 C 202.996094 187.316406 201.210938 190.636719 201.210938 190.636719 C 238.046875 152.855469 241.875 122.390625 240.472656 116.519531 C 239.070312 110.648438 237.453125 108.351562 234.558594 106.476562 C 231.667969 104.605469 224.265625 100.863281 214.054688 103.753906 C 203.847656 106.648438 199.933594 108.691406 197.210938 109.625 C 194.488281 110.5625 187.554688 111.160156 183.8125 110.136719 C 180.066406 109.117188 167.6875 101.371094 160.96875 100.097656 C 150.949219 98.265625 145.398438 101.542969 145.398438 101.542969 " fill-opacity="1" fill-rule="nonzero"/><g fill="#ffffff" fill-opacity="1"><g transform="translate(111.539249, 242.515825)"><g><path d="M 56.953125 -49.4375 C 59.515625 -47.082031 60.273438 -44.238281 59.234375 -40.90625 C 59.046875 -40.320312 58.804688 -39.757812 58.515625 -39.21875 C 57.972656 -38.25 57.359375 -37.34375 56.671875 -36.5 C 55.984375 -35.65625 55.253906 -34.847656 54.484375 -34.078125 C 53.960938 -33.523438 53.359375 -33.335938 52.671875 -33.515625 C 52.472656 -33.535156 52.34375 -33.632812 52.28125 -33.8125 C 52.25 -33.988281 52.300781 -34.132812 52.4375 -34.25 C 53.6875 -35.457031 54.785156 -36.796875 55.734375 -38.265625 C 56.410156 -39.253906 56.898438 -40.316406 57.203125 -41.453125 C 57.960938 -44.546875 57.117188 -47.09375 54.671875 -49.09375 C 53.515625 -50 52.21875 -50.640625 50.78125 -51.015625 C 49.4375 -51.367188 48.082031 -51.597656 46.71875 -51.703125 C 45.363281 -51.816406 43.992188 -51.828125 42.609375 -51.734375 C 40.515625 -51.609375 38.429688 -51.363281 36.359375 -51 C 34.296875 -50.632812 32.242188 -50.203125 30.203125 -49.703125 C 27.535156 -49.046875 24.914062 -48.238281 22.34375 -47.28125 C 19.78125 -46.332031 17.296875 -45.195312 14.890625 -43.875 C 12.554688 -42.625 10.390625 -41.117188 8.390625 -39.359375 C 6.617188 -37.796875 5.164062 -35.972656 4.03125 -33.890625 C 2.5625 -31.117188 2.679688 -28.414062 4.390625 -25.78125 C 5.484375 -24.195312 6.78125 -22.796875 8.28125 -21.578125 C 10.613281 -19.648438 13.070312 -17.914062 15.65625 -16.375 C 17.84375 -15.0625 20.023438 -13.769531 22.203125 -12.5 C 23.648438 -11.664062 25.085938 -10.820312 26.515625 -9.96875 C 27.546875 -9.375 28.550781 -8.757812 29.53125 -8.125 C 30.507812 -7.488281 31.46875 -6.800781 32.40625 -6.0625 C 32.96875 -5.601562 33.582031 -5.488281 34.25 -5.71875 C 36.570312 -6.394531 38.925781 -6.878906 41.3125 -7.171875 C 41.394531 -7.171875 41.472656 -7.179688 41.546875 -7.203125 C 42.085938 -7.296875 42.617188 -7.296875 43.140625 -7.203125 C 43.273438 -7.160156 43.390625 -7.097656 43.484375 -7.015625 C 43.578125 -6.929688 43.625 -6.800781 43.625 -6.625 C 43.625 -6.445312 43.570312 -6.3125 43.46875 -6.21875 C 43.363281 -6.132812 43.242188 -6.09375 43.109375 -6.09375 C 42.273438 -6.070312 41.460938 -5.984375 40.671875 -5.828125 C 39.890625 -5.679688 39.113281 -5.507812 38.34375 -5.3125 C 37.71875 -5.15625 37.101562 -5.019531 36.5 -4.90625 C 36.425781 -4.882812 36.351562 -4.867188 36.28125 -4.859375 C 35.988281 -4.816406 35.703125 -4.742188 35.421875 -4.640625 C 35.140625 -4.546875 34.894531 -4.40625 34.6875 -4.21875 C 34.84375 -3.820312 35.054688 -3.503906 35.328125 -3.265625 C 35.441406 -3.117188 35.554688 -2.972656 35.671875 -2.828125 C 36.148438 -2.191406 36.566406 -1.53125 36.921875 -0.84375 C 37.285156 -0.15625 37.554688 0.570312 37.734375 1.34375 C 38.148438 3.332031 37.5 4.867188 35.78125 5.953125 C 35.207031 6.296875 34.601562 6.582031 33.96875 6.8125 C 31.71875 7.625 29.410156 7.960938 27.046875 7.828125 C 26.117188 7.765625 25.25 7.535156 24.4375 7.140625 C 23.332031 6.554688 22.601562 5.738281 22.25 4.6875 C 21.90625 3.644531 22.007812 2.566406 22.5625 1.453125 C 22.925781 0.734375 23.40625 0.117188 24 -0.390625 C 24.757812 -1.066406 25.566406 -1.671875 26.421875 -2.203125 C 27.273438 -2.734375 28.160156 -3.222656 29.078125 -3.671875 C 29.460938 -3.867188 29.835938 -4.0625 30.203125 -4.25 C 30.398438 -4.34375 30.59375 -4.441406 30.78125 -4.546875 C 30.800781 -4.753906 30.765625 -4.914062 30.671875 -5.03125 C 30.585938 -5.144531 30.488281 -5.238281 30.375 -5.3125 C 30.332031 -5.332031 30.289062 -5.363281 30.25 -5.40625 C 28.6875 -6.601562 27.054688 -7.691406 25.359375 -8.671875 C 23.296875 -9.890625 21.222656 -11.097656 19.140625 -12.296875 C 18.265625 -12.796875 17.394531 -13.304688 16.53125 -13.828125 C 13.519531 -15.566406 10.625 -17.476562 7.84375 -19.5625 C 6.125 -20.84375 4.570312 -22.289062 3.1875 -23.90625 C 2.507812 -24.738281 1.9375 -25.632812 1.46875 -26.59375 C 0.488281 -28.65625 0.394531 -30.78125 1.1875 -32.96875 C 1.59375 -34.09375 2.128906 -35.128906 2.796875 -36.078125 C 3.472656 -37.035156 4.222656 -37.9375 5.046875 -38.78125 C 6.859375 -40.65625 8.863281 -42.257812 11.0625 -43.59375 C 14.707031 -45.832031 18.554688 -47.628906 22.609375 -48.984375 C 27.671875 -50.679688 32.84375 -51.890625 38.125 -52.609375 C 39.957031 -52.847656 41.796875 -52.988281 43.640625 -53.03125 C 45.492188 -53.082031 47.335938 -52.96875 49.171875 -52.6875 C 50.265625 -52.53125 51.328125 -52.296875 52.359375 -51.984375 C 53.390625 -51.679688 54.378906 -51.238281 55.328125 -50.65625 C 55.910156 -50.289062 56.453125 -49.882812 56.953125 -49.4375 Z M 32.765625 -3.046875 C 32.460938 -3.367188 32.109375 -3.421875 31.703125 -3.203125 C 30.679688 -2.742188 29.691406 -2.226562 28.734375 -1.65625 C 27.785156 -1.082031 26.875 -0.4375 26 0.28125 C 25.539062 0.675781 25.15625 1.144531 24.84375 1.6875 C 24.269531 2.789062 24.207031 3.8125 24.65625 4.75 C 25.101562 5.695312 25.9375 6.28125 27.15625 6.5 C 27.445312 6.53125 27.707031 6.554688 27.9375 6.578125 C 28.019531 6.578125 28.085938 6.578125 28.140625 6.578125 C 29.992188 6.523438 31.679688 6.148438 33.203125 5.453125 C 35.097656 4.640625 35.785156 3.238281 35.265625 1.25 C 35.046875 0.425781 34.71875 -0.335938 34.28125 -1.046875 C 33.851562 -1.753906 33.347656 -2.421875 32.765625 -3.046875 Z M 32.765625 -3.046875 "/></g></g></g><g fill="#ffffff" fill-opacity="1"><g transform="translate(154.977591, 242.515825)"><g><path d="M 10.109375 -7.203125 C 10.242188 -7.328125 10.3125 -7.164062 10.3125 -6.71875 C 10.320312 -6.269531 9.910156 -5.640625 9.078125 -4.828125 C 8.253906 -4.015625 7.398438 -3.628906 6.515625 -3.671875 C 6.316406 -3.691406 6.148438 -3.675781 6.015625 -3.625 C 5.878906 -3.570312 5.765625 -3.460938 5.671875 -3.296875 C 5.578125 -3.128906 5.460938 -2.984375 5.328125 -2.859375 C 5.328125 -2.859375 5.316406 -2.847656 5.296875 -2.828125 C 4.753906 -2.253906 4.117188 -1.875 3.390625 -1.6875 C 2.660156 -1.5 1.960938 -1.550781 1.296875 -1.84375 C 0.640625 -2.144531 0.164062 -2.710938 -0.125 -3.546875 C -0.332031 -4.304688 -0.347656 -5.054688 -0.171875 -5.796875 C -0.0234375 -6.460938 0.210938 -7.082031 0.546875 -7.65625 C 0.953125 -8.425781 1.476562 -8.972656 2.125 -9.296875 C 2.769531 -9.617188 3.5 -9.796875 4.3125 -9.828125 C 5.53125 -9.890625 6.296875 -9.320312 6.609375 -8.125 C 6.796875 -7.425781 6.84375 -6.722656 6.75 -6.015625 C 6.726562 -5.859375 6.695312 -5.691406 6.65625 -5.515625 C 6.625 -5.398438 6.59375 -5.285156 6.5625 -5.171875 C 6.53125 -4.785156 6.695312 -4.609375 7.0625 -4.640625 C 8.082031 -4.816406 9.097656 -5.671875 10.109375 -7.203125 Z M 2.953125 -2.71875 C 3.566406 -3 4 -3.488281 4.25 -4.1875 C 3.21875 -4.84375 2.523438 -5.789062 2.171875 -7.03125 C 1.847656 -6.445312 1.648438 -5.769531 1.578125 -5 C 1.503906 -4.226562 1.578125 -3.585938 1.796875 -3.078125 C 2.023438 -2.578125 2.410156 -2.457031 2.953125 -2.71875 Z M 4.71875 -5.546875 C 4.882812 -5.796875 4.984375 -6.097656 5.015625 -6.453125 C 5.046875 -6.816406 5.03125 -7.175781 4.96875 -7.53125 C 4.90625 -7.882812 4.8125 -8.160156 4.6875 -8.359375 C 4.570312 -8.566406 4.445312 -8.628906 4.3125 -8.546875 C 4.082031 -8.335938 3.953125 -8.035156 3.921875 -7.640625 C 3.890625 -7.242188 3.945312 -6.847656 4.09375 -6.453125 C 4.238281 -6.066406 4.445312 -5.765625 4.71875 -5.546875 Z M 4.71875 -5.546875 "/></g></g></g><g fill="#ffffff" fill-opacity="1"><g transform="translate(165.909977, 242.515825)"><g><path d="M 8.390625 -6.296875 C 8.554688 -6.640625 8.671875 -6.796875 8.734375 -6.765625 C 8.796875 -6.742188 8.8125 -6.609375 8.78125 -6.359375 C 8.75 -6.109375 8.695312 -5.828125 8.625 -5.515625 C 8.507812 -5.035156 8.3125 -4.472656 8.03125 -3.828125 C 7.75 -3.191406 7.4375 -2.617188 7.09375 -2.109375 C 6.582031 -1.390625 5.953125 -0.847656 5.203125 -0.484375 C 4.453125 -0.117188 3.769531 -0.0234375 3.15625 -0.203125 C 2.550781 -0.390625 2.203125 -0.96875 2.109375 -1.9375 C 2.085938 -2.738281 2.15625 -3.625 2.3125 -4.59375 C 2.363281 -5 2.421875 -5.394531 2.484375 -5.78125 C 2.484375 -5.914062 2.445312 -6.019531 2.375 -6.09375 C 2.3125 -6.175781 2.222656 -6.207031 2.109375 -6.1875 C 2.023438 -6.1875 1.9375 -6.1875 1.84375 -6.1875 C 1.363281 -6.101562 0.875 -6.113281 0.375 -6.21875 C -0.226562 -6.382812 -0.578125 -6.675781 -0.671875 -7.09375 C -0.765625 -7.507812 -0.753906 -8.054688 -0.640625 -8.734375 C -0.578125 -9.222656 -0.394531 -9.585938 -0.09375 -9.828125 C 0.195312 -10.066406 0.546875 -10.164062 0.953125 -10.125 C 1.515625 -10.070312 1.785156 -9.851562 1.765625 -9.46875 C 1.742188 -9.09375 1.640625 -8.691406 1.453125 -8.265625 C 1.273438 -7.898438 1.179688 -7.597656 1.171875 -7.359375 C 1.160156 -7.117188 1.367188 -7.035156 1.796875 -7.109375 C 1.890625 -7.128906 1.992188 -7.160156 2.109375 -7.203125 C 2.265625 -7.265625 2.441406 -7.316406 2.640625 -7.359375 C 2.847656 -7.410156 3.113281 -7.421875 3.4375 -7.390625 C 3.820312 -7.378906 4.078125 -7.203125 4.203125 -6.859375 C 4.328125 -6.523438 4.378906 -6.101562 4.359375 -5.59375 C 4.347656 -5.082031 4.300781 -4.566406 4.21875 -4.046875 C 4.125 -3.378906 4.078125 -2.8125 4.078125 -2.34375 C 4.078125 -1.875 4.210938 -1.601562 4.484375 -1.53125 C 4.847656 -1.425781 5.382812 -1.75 6.09375 -2.5 C 6.8125 -3.25 7.578125 -4.515625 8.390625 -6.296875 Z M 8.390625 -6.296875 "/></g></g></g><g fill="#ffffff" fill-opacity="1"><g transform="translate(175.092744, 242.515825)"><g><path d="M 8.390625 -6.296875 C 8.554688 -6.640625 8.671875 -6.796875 8.734375 -6.765625 C 8.796875 -6.742188 8.8125 -6.609375 8.78125 -6.359375 C 8.75 -6.109375 8.695312 -5.828125 8.625 -5.515625 C 8.507812 -5.035156 8.3125 -4.472656 8.03125 -3.828125 C 7.75 -3.191406 7.4375 -2.617188 7.09375 -2.109375 C 6.582031 -1.390625 5.953125 -0.847656 5.203125 -0.484375 C 4.453125 -0.117188 3.769531 -0.0234375 3.15625 -0.203125 C 2.550781 -0.390625 2.203125 -0.96875 2.109375 -1.9375 C 2.085938 -2.738281 2.15625 -3.625 2.3125 -4.59375 C 2.363281 -5 2.421875 -5.394531 2.484375 -5.78125 C 2.484375 -5.914062 2.445312 -6.019531 2.375 -6.09375 C 2.3125 -6.175781 2.222656 -6.207031 2.109375 -6.1875 C 2.023438 -6.1875 1.9375 -6.1875 1.84375 -6.1875 C 1.363281 -6.101562 0.875 -6.113281 0.375 -6.21875 C -0.226562 -6.382812 -0.578125 -6.675781 -0.671875 -7.09375 C -0.765625 -7.507812 -0.753906 -8.054688 -0.640625 -8.734375 C -0.578125 -9.222656 -0.394531 -9.585938 -0.09375 -9.828125 C 0.195312 -10.066406 0.546875 -10.164062 0.953125 -10.125 C 1.515625 -10.070312 1.785156 -9.851562 1.765625 -9.46875 C 1.742188 -9.09375 1.640625 -8.691406 1.453125 -8.265625 C 1.273438 -7.898438 1.179688 -7.597656 1.171875 -7.359375 C 1.160156 -7.117188 1.367188 -7.035156 1.796875 -7.109375 C 1.890625 -7.128906 1.992188 -7.160156 2.109375 -7.203125 C 2.265625 -7.265625 2.441406 -7.316406 2.640625 -7.359375 C 2.847656 -7.410156 3.113281 -7.421875 3.4375 -7.390625 C 3.820312 -7.378906 4.078125 -7.203125 4.203125 -6.859375 C 4.328125 -6.523438 4.378906 -6.101562 4.359375 -5.59375 C 4.347656 -5.082031 4.300781 -4.566406 4.21875 -4.046875 C 4.125 -3.378906 4.078125 -2.8125 4.078125 -2.34375 C 4.078125 -1.875 4.210938 -1.601562 4.484375 -1.53125 C 4.847656 -1.425781 5.382812 -1.75 6.09375 -2.5 C 6.8125 -3.25 7.578125 -4.515625 8.390625 -6.296875 Z M 8.390625 -6.296875 "/></g></g></g><g fill="#ffffff" fill-opacity="1"><g transform="translate(184.275512, 242.515825)"><g><path d="M 6.828125 -5.34375 C 6.554688 -4.78125 6.09375 -4.15625 5.4375 -3.46875 C 4.789062 -2.789062 4.050781 -2.359375 3.21875 -2.171875 C 2.382812 -1.984375 1.59375 -2.269531 0.84375 -3.03125 C 0.550781 -3.363281 0.335938 -3.742188 0.203125 -4.171875 C 0.0664062 -4.609375 0.015625 -5.039062 0.046875 -5.46875 C 0.046875 -5.570312 0.046875 -5.710938 0.046875 -5.890625 C 0.046875 -6.335938 0.0664062 -6.851562 0.109375 -7.4375 C 0.148438 -8.03125 0.238281 -8.5625 0.375 -9.03125 C 0.507812 -9.507812 0.722656 -9.796875 1.015625 -9.890625 C 1.847656 -10.109375 2.300781 -9.820312 2.375 -9.03125 C 2.375 -8.769531 2.363281 -8.515625 2.34375 -8.265625 C 2.320312 -8.128906 2.3125 -8.003906 2.3125 -7.890625 C 2.300781 -7.523438 2.285156 -7.160156 2.265625 -6.796875 C 2.265625 -6.503906 2.25 -6.210938 2.21875 -5.921875 C 2.207031 -4.648438 2.492188 -3.894531 3.078125 -3.65625 C 3.671875 -3.414062 4.34375 -3.671875 5.09375 -4.421875 C 5.84375 -5.171875 6.332031 -5.796875 6.5625 -6.296875 C 6.800781 -6.796875 6.972656 -6.898438 7.078125 -6.609375 C 7.179688 -6.328125 7.097656 -5.90625 6.828125 -5.34375 Z M 2.203125 -12.609375 C 2.085938 -12.515625 1.945312 -12.453125 1.78125 -12.421875 C 1.625 -12.398438 1.484375 -12.414062 1.359375 -12.46875 C 1.253906 -12.539062 1.1875 -12.640625 1.15625 -12.765625 C 1.132812 -12.898438 1.125 -13.050781 1.125 -13.21875 C 1.125 -13.257812 1.132812 -13.296875 1.15625 -13.328125 C 1.175781 -13.484375 1.21875 -13.644531 1.28125 -13.8125 C 1.457031 -14.226562 1.820312 -14.421875 2.375 -14.390625 C 2.5625 -14.359375 2.707031 -14.273438 2.8125 -14.140625 C 2.925781 -14.015625 2.953125 -13.863281 2.890625 -13.6875 C 2.765625 -13.257812 2.535156 -12.898438 2.203125 -12.609375 Z M 2.203125 -12.609375 "/></g></g></g><g fill="#ffffff" fill-opacity="1"><g transform="translate(191.866532, 242.515825)"><g><path d="M 20.65625 -6.421875 C 20.726562 -6.566406 20.84375 -6.644531 21 -6.65625 C 21.164062 -6.664062 21.304688 -6.566406 21.421875 -6.359375 C 21.460938 -6.304688 21.421875 -6.15625 21.296875 -5.90625 C 21.171875 -5.664062 21.003906 -5.394531 20.796875 -5.09375 C 20.585938 -4.789062 20.382812 -4.515625 20.1875 -4.265625 C 20 -4.015625 19.863281 -3.851562 19.78125 -3.78125 C 18.914062 -2.8125 18.039062 -2.097656 17.15625 -1.640625 C 16.28125 -1.191406 15.328125 -1.097656 14.296875 -1.359375 C 13.273438 -1.617188 12.128906 -2.347656 10.859375 -3.546875 C 10.660156 -3.765625 10.46875 -3.976562 10.28125 -4.1875 C 10.226562 -4.25 10.179688 -4.304688 10.140625 -4.359375 C 9.921875 -4.597656 9.6875 -4.628906 9.4375 -4.453125 C 9.175781 -4.253906 8.910156 -4.0625 8.640625 -3.875 C 8.398438 -3.695312 8.15625 -3.53125 7.90625 -3.375 C 7.09375 -2.820312 6.234375 -2.351562 5.328125 -1.96875 C 4.359375 -1.53125 3.347656 -1.359375 2.296875 -1.453125 C 0.628906 -1.648438 -0.234375 -2.570312 -0.296875 -4.21875 C -0.304688 -5.375 -0.0546875 -6.410156 0.453125 -7.328125 C 0.960938 -8.242188 1.675781 -8.914062 2.59375 -9.34375 C 3.507812 -9.78125 4.566406 -9.867188 5.765625 -9.609375 C 5.898438 -9.578125 6.078125 -9.535156 6.296875 -9.484375 C 6.421875 -9.441406 6.582031 -9.40625 6.78125 -9.375 C 6.664062 -9.644531 6.5625 -9.882812 6.46875 -10.09375 C 6.289062 -10.445312 6.132812 -10.769531 6 -11.0625 C 5.195312 -12.695312 4.546875 -14.566406 4.046875 -16.671875 C 3.546875 -18.785156 3.300781 -20.953125 3.3125 -23.171875 C 3.320312 -25.390625 3.691406 -27.457031 4.421875 -29.375 C 5.160156 -31.289062 6.378906 -32.863281 8.078125 -34.09375 C 9.160156 -34.820312 10.273438 -35.21875 11.421875 -35.28125 C 12.566406 -35.34375 13.648438 -35.09375 14.671875 -34.53125 C 15.703125 -33.96875 16.535156 -33.125 17.171875 -32 C 17.992188 -30.457031 18.503906 -28.832031 18.703125 -27.125 C 19.054688 -24.363281 19 -21.785156 18.53125 -19.390625 C 18.0625 -16.992188 17.238281 -14.726562 16.0625 -12.59375 C 14.894531 -10.457031 13.398438 -8.390625 11.578125 -6.390625 C 11.398438 -6.191406 11.304688 -6.035156 11.296875 -5.921875 C 11.296875 -5.804688 11.382812 -5.644531 11.5625 -5.4375 C 11.925781 -4.957031 12.320312 -4.488281 12.75 -4.03125 C 13.1875 -3.570312 13.675781 -3.1875 14.21875 -2.875 C 14.96875 -2.550781 15.769531 -2.546875 16.625 -2.859375 C 17.488281 -3.179688 18.285156 -3.675781 19.015625 -4.34375 C 19.753906 -5.007812 20.300781 -5.703125 20.65625 -6.421875 Z M 7.734375 -5.265625 C 7.960938 -5.453125 7.984375 -5.671875 7.796875 -5.921875 C 7.679688 -6.066406 7.566406 -6.210938 7.453125 -6.359375 C 7.128906 -6.742188 6.765625 -7.140625 6.359375 -7.546875 C 5.960938 -7.953125 5.546875 -8.257812 5.109375 -8.46875 C 4.679688 -8.6875 4.242188 -8.707031 3.796875 -8.53125 C 3.179688 -8.238281 2.675781 -7.722656 2.28125 -6.984375 C 1.882812 -6.253906 1.648438 -5.503906 1.578125 -4.734375 C 1.503906 -3.960938 1.648438 -3.375 2.015625 -2.96875 C 2.390625 -2.570312 3.019531 -2.535156 3.90625 -2.859375 C 5.300781 -3.472656 6.578125 -4.273438 7.734375 -5.265625 Z M 10.65625 -8.125 C 12.507812 -10.300781 13.894531 -12.445312 14.8125 -14.5625 C 15.726562 -16.675781 16.347656 -19.148438 16.671875 -21.984375 C 16.765625 -22.679688 16.804688 -23.59375 16.796875 -24.71875 C 16.796875 -25.84375 16.695312 -27.015625 16.5 -28.234375 C 16.3125 -29.460938 15.96875 -30.578125 15.46875 -31.578125 C 14.96875 -32.585938 14.265625 -33.3125 13.359375 -33.75 C 12.460938 -34.195312 11.3125 -34.195312 9.90625 -33.75 C 8.363281 -32.84375 7.21875 -31.640625 6.46875 -30.140625 C 5.726562 -28.648438 5.304688 -26.988281 5.203125 -25.15625 C 5.097656 -23.320312 5.21875 -21.445312 5.5625 -19.53125 C 5.90625 -17.613281 6.382812 -15.796875 7 -14.078125 C 7.625 -12.367188 8.289062 -10.878906 9 -9.609375 C 9.082031 -9.453125 9.160156 -9.296875 9.234375 -9.140625 C 9.441406 -8.617188 9.75 -8.144531 10.15625 -7.71875 C 10.21875 -7.769531 10.28125 -7.820312 10.34375 -7.875 C 10.457031 -7.9375 10.5625 -8.019531 10.65625 -8.125 Z M 10.65625 -8.125 "/></g></g></g><g fill="#ffffff" fill-opacity="1"><g transform="translate(213.520223, 242.515825)"><g><path d="M 12.6875 -6.359375 C 12.875 -6.472656 13.0625 -6.5625 13.25 -6.625 C 13.4375 -6.6875 13.554688 -6.679688 13.609375 -6.609375 C 13.671875 -6.535156 13.597656 -6.378906 13.390625 -6.140625 C 12.722656 -5.378906 11.929688 -4.6875 11.015625 -4.0625 C 10.097656 -3.4375 9.160156 -2.90625 8.203125 -2.46875 C 7.441406 -2.132812 6.640625 -1.863281 5.796875 -1.65625 C 4.960938 -1.457031 4.132812 -1.414062 3.3125 -1.53125 C 2.5 -1.644531 1.753906 -2.007812 1.078125 -2.625 C 0.0546875 -3.570312 -0.367188 -4.726562 -0.203125 -6.09375 C -0.046875 -7.175781 0.378906 -8.097656 1.078125 -8.859375 C 1.773438 -9.617188 2.65625 -10.132812 3.71875 -10.40625 C 4.601562 -10.601562 5.488281 -10.625 6.375 -10.46875 C 6.769531 -10.414062 7.132812 -10.28125 7.46875 -10.0625 C 7.78125 -9.832031 7.953125 -9.554688 7.984375 -9.234375 C 8.015625 -8.921875 7.894531 -8.617188 7.625 -8.328125 C 7.0625 -7.828125 6.410156 -7.53125 5.671875 -7.4375 C 4.847656 -7.289062 4.019531 -7.203125 3.1875 -7.171875 C 2.78125 -7.171875 2.492188 -7.085938 2.328125 -6.921875 C 2.171875 -6.753906 2.078125 -6.46875 2.046875 -6.0625 C 1.921875 -4.96875 2.273438 -4.070312 3.109375 -3.375 C 3.617188 -2.96875 4.242188 -2.796875 4.984375 -2.859375 C 5.734375 -2.921875 6.523438 -3.117188 7.359375 -3.453125 C 8.191406 -3.796875 9.003906 -4.191406 9.796875 -4.640625 C 10.597656 -5.085938 11.320312 -5.515625 11.96875 -5.921875 C 12.238281 -6.097656 12.476562 -6.242188 12.6875 -6.359375 Z M 3.546875 -8.703125 C 3.546875 -8.679688 3.53125 -8.671875 3.5 -8.671875 C 3.46875 -8.640625 3.421875 -8.597656 3.359375 -8.546875 C 3.304688 -8.492188 3.253906 -8.441406 3.203125 -8.390625 C 3.148438 -8.347656 3.125 -8.316406 3.125 -8.296875 C 3.144531 -8.242188 3.300781 -8.226562 3.59375 -8.25 C 3.894531 -8.28125 4.222656 -8.332031 4.578125 -8.40625 C 4.941406 -8.488281 5.242188 -8.59375 5.484375 -8.71875 C 5.734375 -8.84375 5.8125 -8.992188 5.71875 -9.171875 C 5.664062 -9.222656 5.609375 -9.269531 5.546875 -9.3125 C 5.484375 -9.351562 5.410156 -9.378906 5.328125 -9.390625 C 4.972656 -9.390625 4.648438 -9.320312 4.359375 -9.1875 C 4.078125 -9.050781 3.804688 -8.890625 3.546875 -8.703125 Z M 3.546875 -8.703125 "/></g></g></g><g fill="#ffffff" fill-opacity="1"><g transform="translate(227.386158, 242.515825)"><g><path d="M 10.875 -5.0625 C 11.550781 -6.132812 11.953125 -6.816406 12.078125 -7.109375 C 12.210938 -7.398438 12.316406 -7.382812 12.390625 -7.0625 C 12.460938 -6.75 12.242188 -6.035156 11.734375 -4.921875 C 11.222656 -3.816406 10.59375 -2.960938 9.84375 -2.359375 C 9.09375 -1.753906 8.390625 -1.53125 7.734375 -1.6875 C 7.078125 -1.851562 6.609375 -2.3125 6.328125 -3.0625 C 6.046875 -3.8125 5.960938 -4.753906 6.078125 -5.890625 C 6.078125 -5.910156 6.085938 -5.960938 6.109375 -6.046875 C 6.128906 -6.234375 6.160156 -6.515625 6.203125 -6.890625 C 6.253906 -7.273438 6.289062 -7.664062 6.3125 -8.0625 C 6.332031 -8.46875 6.316406 -8.800781 6.265625 -9.0625 C 6.222656 -9.332031 6.101562 -9.425781 5.90625 -9.34375 C 5.445312 -9.09375 4.992188 -8.59375 4.546875 -7.84375 C 4.097656 -7.101562 3.691406 -6.328125 3.328125 -5.515625 C 2.972656 -4.703125 2.722656 -4.046875 2.578125 -3.546875 C 2.515625 -3.390625 2.457031 -3.222656 2.40625 -3.046875 C 2.332031 -2.828125 2.242188 -2.601562 2.140625 -2.375 C 1.890625 -1.707031 1.445312 -1.453125 0.8125 -1.609375 C 0.46875 -1.679688 0.265625 -1.894531 0.203125 -2.25 C 0.179688 -2.519531 0.171875 -2.78125 0.171875 -3.03125 C 0.171875 -3.1875 0.160156 -3.332031 0.140625 -3.46875 C 0.109375 -5.414062 0.0625 -7.375 0 -9.34375 C 0.0195312 -9.570312 0.117188 -9.726562 0.296875 -9.8125 C 0.484375 -9.90625 0.703125 -9.953125 0.953125 -9.953125 C 1.148438 -9.953125 1.332031 -9.898438 1.5 -9.796875 C 1.675781 -9.691406 1.785156 -9.472656 1.828125 -9.140625 C 1.847656 -9.023438 1.859375 -8.910156 1.859375 -8.796875 C 1.867188 -8.734375 1.875 -8.675781 1.875 -8.625 C 1.914062 -8.351562 1.9375 -8.117188 1.9375 -7.921875 C 1.9375 -7.628906 1.953125 -7.429688 1.984375 -7.328125 C 2.023438 -7.222656 2.109375 -7.226562 2.234375 -7.34375 C 2.367188 -7.457031 2.582031 -7.726562 2.875 -8.15625 C 3.375 -8.925781 3.988281 -9.582031 4.71875 -10.125 C 5.394531 -10.601562 6.140625 -10.800781 6.953125 -10.71875 C 7.640625 -10.65625 8.101562 -10.296875 8.34375 -9.640625 C 8.4375 -9.304688 8.484375 -8.96875 8.484375 -8.625 C 8.484375 -8.289062 8.460938 -7.953125 8.421875 -7.609375 C 8.398438 -7.253906 8.375 -6.894531 8.34375 -6.53125 C 8.3125 -6.414062 8.289062 -6.300781 8.28125 -6.1875 C 8.164062 -4.925781 8.203125 -4.082031 8.390625 -3.65625 C 8.585938 -3.238281 8.882812 -3.101562 9.28125 -3.25 C 9.675781 -3.394531 10.207031 -4 10.875 -5.0625 Z M 10.875 -5.0625 "/></g></g></g><g fill="#ffffff" fill-opacity="1"><g transform="translate(240.094455, 242.515825)"><g><path d="M 9.65625 -6.328125 C 10.144531 -6.796875 10.351562 -6.910156 10.28125 -6.671875 C 10.21875 -6.441406 9.953125 -6.019531 9.484375 -5.40625 C 9.023438 -4.800781 8.445312 -4.144531 7.75 -3.4375 C 7.0625 -2.726562 6.328125 -2.109375 5.546875 -1.578125 C 4.773438 -1.054688 4.046875 -0.773438 3.359375 -0.734375 C 2.503906 -0.734375 1.820312 -0.984375 1.3125 -1.484375 C 0.800781 -1.992188 0.429688 -2.660156 0.203125 -3.484375 C -0.015625 -4.316406 -0.101562 -5.21875 -0.0625 -6.1875 C -0.0195312 -7.257812 0.015625 -8.335938 0.046875 -9.421875 C 0.0664062 -9.960938 0.0859375 -10.492188 0.109375 -11.015625 C 0.148438 -11.878906 0.179688 -12.75 0.203125 -13.625 C 0.210938 -13.894531 0.164062 -14.117188 0.0625 -14.296875 C -0.0390625 -14.484375 -0.226562 -14.585938 -0.5 -14.609375 C -0.800781 -14.628906 -1.1875 -14.640625 -1.65625 -14.640625 C -2.0625 -14.640625 -2.410156 -14.640625 -2.703125 -14.640625 C -3.097656 -14.679688 -3.363281 -14.785156 -3.5 -14.953125 C -3.644531 -15.128906 -3.539062 -15.304688 -3.1875 -15.484375 C -2.9375 -15.578125 -2.640625 -15.625 -2.296875 -15.625 C -1.953125 -15.632812 -1.613281 -15.632812 -1.28125 -15.625 C -1.0625 -15.601562 -0.875 -15.59375 -0.71875 -15.59375 C -0.207031 -15.59375 0.101562 -15.671875 0.21875 -15.828125 C 0.332031 -15.992188 0.40625 -16.320312 0.4375 -16.8125 C 0.46875 -17.3125 0.492188 -17.820312 0.515625 -18.34375 C 0.535156 -18.613281 0.554688 -18.882812 0.578125 -19.15625 C 0.578125 -19.5625 0.679688 -19.925781 0.890625 -20.25 C 1.117188 -20.5625 1.410156 -20.679688 1.765625 -20.609375 C 2.066406 -20.523438 2.238281 -20.332031 2.28125 -20.03125 C 2.300781 -19.519531 2.3125 -19.003906 2.3125 -18.484375 C 2.332031 -18.203125 2.332031 -17.914062 2.3125 -17.625 C 2.3125 -17.3125 2.320312 -16.988281 2.34375 -16.65625 C 2.320312 -16.207031 2.375 -15.921875 2.5 -15.796875 C 2.625 -15.679688 2.925781 -15.625 3.40625 -15.625 C 4.195312 -15.625 4.976562 -15.625 5.75 -15.625 C 6.101562 -15.625 7.144531 -15.644531 8.875 -15.6875 C 10.613281 -15.738281 11.550781 -15.597656 11.6875 -15.265625 C 11.820312 -14.941406 10.722656 -14.753906 8.390625 -14.703125 C 6.984375 -14.617188 5.894531 -14.578125 5.125 -14.578125 C 4.601562 -14.597656 4.132812 -14.609375 3.71875 -14.609375 C 3.03125 -14.609375 2.601562 -14.488281 2.4375 -14.25 C 2.28125 -14.007812 2.207031 -13.523438 2.21875 -12.796875 C 2.207031 -12.171875 2.175781 -11.414062 2.125 -10.53125 C 2.019531 -8.707031 1.96875 -6.851562 1.96875 -4.96875 C 2.007812 -3.675781 2.238281 -2.835938 2.65625 -2.453125 C 3.082031 -2.066406 3.628906 -1.992188 4.296875 -2.234375 C 4.972656 -2.472656 5.703125 -2.898438 6.484375 -3.515625 C 7.273438 -4.140625 8.054688 -4.804688 8.828125 -5.515625 C 8.992188 -5.734375 9.195312 -5.941406 9.4375 -6.140625 C 9.507812 -6.203125 9.582031 -6.265625 9.65625 -6.328125 Z M 9.65625 -6.328125 "/></g></g></g><g fill="#ffffff" fill-opacity="1"><g transform="translate(250.711115, 242.515825)"><g><path d="M 12.6875 -6.359375 C 12.875 -6.472656 13.0625 -6.5625 13.25 -6.625 C 13.4375 -6.6875 13.554688 -6.679688 13.609375 -6.609375 C 13.671875 -6.535156 13.597656 -6.378906 13.390625 -6.140625 C 12.722656 -5.378906 11.929688 -4.6875 11.015625 -4.0625 C 10.097656 -3.4375 9.160156 -2.90625 8.203125 -2.46875 C 7.441406 -2.132812 6.640625 -1.863281 5.796875 -1.65625 C 4.960938 -1.457031 4.132812 -1.414062 3.3125 -1.53125 C 2.5 -1.644531 1.753906 -2.007812 1.078125 -2.625 C 0.0546875 -3.570312 -0.367188 -4.726562 -0.203125 -6.09375 C -0.046875 -7.175781 0.378906 -8.097656 1.078125 -8.859375 C 1.773438 -9.617188 2.65625 -10.132812 3.71875 -10.40625 C 4.601562 -10.601562 5.488281 -10.625 6.375 -10.46875 C 6.769531 -10.414062 7.132812 -10.28125 7.46875 -10.0625 C 7.78125 -9.832031 7.953125 -9.554688 7.984375 -9.234375 C 8.015625 -8.921875 7.894531 -8.617188 7.625 -8.328125 C 7.0625 -7.828125 6.410156 -7.53125 5.671875 -7.4375 C 4.847656 -7.289062 4.019531 -7.203125 3.1875 -7.171875 C 2.78125 -7.171875 2.492188 -7.085938 2.328125 -6.921875 C 2.171875 -6.753906 2.078125 -6.46875 2.046875 -6.0625 C 1.921875 -4.96875 2.273438 -4.070312 3.109375 -3.375 C 3.617188 -2.96875 4.242188 -2.796875 4.984375 -2.859375 C 5.734375 -2.921875 6.523438 -3.117188 7.359375 -3.453125 C 8.191406 -3.796875 9.003906 -4.191406 9.796875 -4.640625 C 10.597656 -5.085938 11.320312 -5.515625 11.96875 -5.921875 C 12.238281 -6.097656 12.476562 -6.242188 12.6875 -6.359375 Z M 3.546875 -8.703125 C 3.546875 -8.679688 3.53125 -8.671875 3.5 -8.671875 C 3.46875 -8.640625 3.421875 -8.597656 3.359375 -8.546875 C 3.304688 -8.492188 3.253906 -8.441406 3.203125 -8.390625 C 3.148438 -8.347656 3.125 -8.316406 3.125 -8.296875 C 3.144531 -8.242188 3.300781 -8.226562 3.59375 -8.25 C 3.894531 -8.28125 4.222656 -8.332031 4.578125 -8.40625 C 4.941406 -8.488281 5.242188 -8.59375 5.484375 -8.71875 C 5.734375 -8.84375 5.8125 -8.992188 5.71875 -9.171875 C 5.664062 -9.222656 5.609375 -9.269531 5.546875 -9.3125 C 5.484375 -9.351562 5.410156 -9.378906 5.328125 -9.390625 C 4.972656 -9.390625 4.648438 -9.320312 4.359375 -9.1875 C 4.078125 -9.050781 3.804688 -8.890625 3.546875 -8.703125 Z M 3.546875 -8.703125 "/></g></g></g><g fill="#00bed8" fill-opacity="1"><g transform="translate(127.529065, 272.104348)"><g><path d="M 5.65625 -9.09375 C 4.550781 -9.09375 3.679688 -8.726562 3.046875 -8 C 2.410156 -7.269531 2.09375 -6.269531 2.09375 -5 C 2.09375 -3.6875 2.398438 -2.671875 3.015625 -1.953125 C 3.628906 -1.242188 4.503906 -0.890625 5.640625 -0.890625 C 6.335938 -0.890625 7.132812 -1.015625 8.03125 -1.265625 L 8.03125 -0.25 C 7.332031 0.0078125 6.476562 0.140625 5.46875 0.140625 C 3.988281 0.140625 2.847656 -0.304688 2.046875 -1.203125 C 1.253906 -2.097656 0.859375 -3.367188 0.859375 -5.015625 C 0.859375 -6.046875 1.050781 -6.945312 1.4375 -7.71875 C 1.820312 -8.488281 2.375 -9.082031 3.09375 -9.5 C 3.820312 -9.925781 4.679688 -10.140625 5.671875 -10.140625 C 6.710938 -10.140625 7.628906 -9.945312 8.421875 -9.5625 L 7.921875 -8.5625 C 7.160156 -8.914062 6.40625 -9.09375 5.65625 -9.09375 Z M 5.65625 -9.09375 "/></g></g></g><g fill="#00bed8" fill-opacity="1"><g transform="translate(137.518182, 272.104348)"><g><path d="M 2.34375 0 L 1.203125 0 L 1.203125 -10.640625 L 2.34375 -10.640625 Z M 2.34375 0 "/></g></g></g><g fill="#00bed8" fill-opacity="1"><g transform="translate(142.219236, 272.104348)"><g><path d="M 2.34375 0 L 1.203125 0 L 1.203125 -7.5 L 2.34375 -7.5 Z M 0.6875 -8.65625 C 0.90625 -8.9375 1.140625 -9.273438 1.390625 -9.671875 C 1.648438 -10.078125 1.851562 -10.425781 2 -10.71875 L 3.375 -10.71875 L 3.375 -10.578125 C 3.175781 -10.285156 2.878906 -9.921875 2.484375 -9.484375 C 2.085938 -9.054688 1.742188 -8.722656 1.453125 -8.484375 L 0.6875 -8.484375 Z M 0.6875 -8.65625 "/></g></g></g><g fill="#00bed8" fill-opacity="1"><g transform="translate(146.920289, 272.104348)"><g><path d="M 6.328125 0 L 6.328125 -4.84375 C 6.328125 -5.457031 6.1875 -5.914062 5.90625 -6.21875 C 5.632812 -6.519531 5.203125 -6.671875 4.609375 -6.671875 C 3.828125 -6.671875 3.253906 -6.457031 2.890625 -6.03125 C 2.523438 -5.601562 2.34375 -4.90625 2.34375 -3.9375 L 2.34375 0 L 1.203125 0 L 1.203125 -7.5 L 2.125 -7.5 L 2.3125 -6.46875 L 2.359375 -6.46875 C 2.597656 -6.832031 2.925781 -7.113281 3.34375 -7.3125 C 3.757812 -7.519531 4.226562 -7.625 4.75 -7.625 C 5.644531 -7.625 6.320312 -7.40625 6.78125 -6.96875 C 7.238281 -6.539062 7.46875 -5.847656 7.46875 -4.890625 L 7.46875 0 Z M 6.328125 0 "/></g></g></g><g fill="#00bed8" fill-opacity="1"><g transform="translate(156.670282, 272.104348)"><g><path d="M 2.34375 0 L 1.203125 0 L 1.203125 -7.5 L 2.34375 -7.5 Z M 1.109375 -9.515625 C 1.109375 -9.773438 1.171875 -9.96875 1.296875 -10.09375 C 1.421875 -10.21875 1.582031 -10.28125 1.78125 -10.28125 C 1.957031 -10.28125 2.113281 -10.21875 2.25 -10.09375 C 2.382812 -9.96875 2.453125 -9.773438 2.453125 -9.515625 C 2.453125 -9.265625 2.382812 -9.078125 2.25 -8.953125 C 2.113281 -8.828125 1.957031 -8.765625 1.78125 -8.765625 C 1.582031 -8.765625 1.421875 -8.828125 1.296875 -8.953125 C 1.171875 -9.078125 1.109375 -9.265625 1.109375 -9.515625 Z M 1.109375 -9.515625 "/></g></g></g><g fill="#00bed8" fill-opacity="1"><g transform="translate(161.371337, 272.104348)"><g><path d="M 4.203125 0.140625 C 3.117188 0.140625 2.273438 -0.191406 1.671875 -0.859375 C 1.078125 -1.523438 0.78125 -2.472656 0.78125 -3.703125 C 0.78125 -4.953125 1.082031 -5.914062 1.6875 -6.59375 C 2.289062 -7.28125 3.148438 -7.625 4.265625 -7.625 C 4.628906 -7.625 4.988281 -7.582031 5.34375 -7.5 C 5.707031 -7.425781 5.992188 -7.335938 6.203125 -7.234375 L 5.859375 -6.28125 C 5.597656 -6.375 5.320312 -6.453125 5.03125 -6.515625 C 4.738281 -6.585938 4.476562 -6.625 4.25 -6.625 C 2.726562 -6.625 1.96875 -5.65625 1.96875 -3.71875 C 1.96875 -2.789062 2.148438 -2.082031 2.515625 -1.59375 C 2.890625 -1.101562 3.441406 -0.859375 4.171875 -0.859375 C 4.796875 -0.859375 5.4375 -0.992188 6.09375 -1.265625 L 6.09375 -0.25 C 5.59375 0.0078125 4.960938 0.140625 4.203125 0.140625 Z M 4.203125 0.140625 "/></g></g></g><g fill="#00bed8" fill-opacity="1"><g transform="translate(169.194672, 272.104348)"><g><path d="M 5.8125 0 L 5.578125 -1.0625 L 5.53125 -1.0625 C 5.15625 -0.59375 4.78125 -0.273438 4.40625 -0.109375 C 4.039062 0.0546875 3.578125 0.140625 3.015625 0.140625 C 2.273438 0.140625 1.691406 -0.0507812 1.265625 -0.4375 C 0.847656 -0.820312 0.640625 -1.367188 0.640625 -2.078125 C 0.640625 -3.585938 1.847656 -4.378906 4.265625 -4.453125 L 5.546875 -4.484375 L 5.546875 -4.953125 C 5.546875 -5.546875 5.414062 -5.976562 5.15625 -6.25 C 4.90625 -6.53125 4.503906 -6.671875 3.953125 -6.671875 C 3.328125 -6.671875 2.617188 -6.484375 1.828125 -6.109375 L 1.484375 -6.96875 C 1.847656 -7.175781 2.25 -7.332031 2.6875 -7.4375 C 3.132812 -7.550781 3.578125 -7.609375 4.015625 -7.609375 C 4.910156 -7.609375 5.570312 -7.410156 6 -7.015625 C 6.4375 -6.617188 6.65625 -5.984375 6.65625 -5.109375 L 6.65625 0 Z M 3.25 -0.796875 C 3.957031 -0.796875 4.507812 -0.988281 4.90625 -1.375 C 5.3125 -1.769531 5.515625 -2.316406 5.515625 -3.015625 L 5.515625 -3.6875 L 4.375 -3.640625 C 3.476562 -3.609375 2.828125 -3.46875 2.421875 -3.21875 C 2.023438 -2.96875 1.828125 -2.582031 1.828125 -2.0625 C 1.828125 -1.644531 1.953125 -1.328125 2.203125 -1.109375 C 2.453125 -0.898438 2.800781 -0.796875 3.25 -0.796875 Z M 3.25 -0.796875 "/></g></g></g><g fill="#00bed8" fill-opacity="1"><g transform="translate(178.138475, 272.104348)"><g/></g></g><g fill="#00bed8" fill-opacity="1"><g transform="translate(182.93518, 272.104348)"><g><path d="M 9.359375 -5.09375 C 9.359375 -3.445312 8.910156 -2.1875 8.015625 -1.3125 C 7.117188 -0.4375 5.828125 0 4.140625 0 L 1.375 0 L 1.375 -10 L 4.4375 -10 C 5.988281 -10 7.195312 -9.566406 8.0625 -8.703125 C 8.925781 -7.835938 9.359375 -6.632812 9.359375 -5.09375 Z M 8.125 -5.046875 C 8.125 -6.347656 7.796875 -7.328125 7.140625 -7.984375 C 6.484375 -8.648438 5.507812 -8.984375 4.21875 -8.984375 L 2.53125 -8.984375 L 2.53125 -1 L 3.953125 -1 C 5.335938 -1 6.378906 -1.335938 7.078125 -2.015625 C 7.773438 -2.703125 8.125 -3.710938 8.125 -5.046875 Z M 8.125 -5.046875 "/></g></g></g><g fill="#00bed8" fill-opacity="1"><g transform="translate(194.297554, 272.104348)"><g><path d="M 4.375 0.140625 C 3.257812 0.140625 2.378906 -0.195312 1.734375 -0.875 C 1.097656 -1.550781 0.78125 -2.488281 0.78125 -3.6875 C 0.78125 -4.894531 1.078125 -5.851562 1.671875 -6.5625 C 2.273438 -7.269531 3.078125 -7.625 4.078125 -7.625 C 5.015625 -7.625 5.753906 -7.316406 6.296875 -6.703125 C 6.847656 -6.085938 7.125 -5.273438 7.125 -4.265625 L 7.125 -3.546875 L 1.96875 -3.546875 C 1.988281 -2.660156 2.207031 -1.988281 2.625 -1.53125 C 3.050781 -1.082031 3.644531 -0.859375 4.40625 -0.859375 C 5.21875 -0.859375 6.015625 -1.023438 6.796875 -1.359375 L 6.796875 -0.34375 C 6.398438 -0.175781 6.019531 -0.0546875 5.65625 0.015625 C 5.300781 0.0976562 4.875 0.140625 4.375 0.140625 Z M 4.0625 -6.671875 C 3.457031 -6.671875 2.972656 -6.472656 2.609375 -6.078125 C 2.253906 -5.691406 2.046875 -5.15625 1.984375 -4.46875 L 5.90625 -4.46875 C 5.90625 -5.175781 5.742188 -5.71875 5.421875 -6.09375 C 5.109375 -6.476562 4.65625 -6.671875 4.0625 -6.671875 Z M 4.0625 -6.671875 "/></g></g></g><g fill="#00bed8" fill-opacity="1"><g transform="translate(203.309679, 272.104348)"><g><path d="M 6.328125 0 L 6.328125 -4.84375 C 6.328125 -5.457031 6.1875 -5.914062 5.90625 -6.21875 C 5.632812 -6.519531 5.203125 -6.671875 4.609375 -6.671875 C 3.828125 -6.671875 3.253906 -6.457031 2.890625 -6.03125 C 2.523438 -5.601562 2.34375 -4.90625 2.34375 -3.9375 L 2.34375 0 L 1.203125 0 L 1.203125 -7.5 L 2.125 -7.5 L 2.3125 -6.46875 L 2.359375 -6.46875 C 2.597656 -6.832031 2.925781 -7.113281 3.34375 -7.3125 C 3.757812 -7.519531 4.226562 -7.625 4.75 -7.625 C 5.644531 -7.625 6.320312 -7.40625 6.78125 -6.96875 C 7.238281 -6.539062 7.46875 -5.847656 7.46875 -4.890625 L 7.46875 0 Z M 6.328125 0 "/></g></g></g><g fill="#00bed8" fill-opacity="1"><g transform="translate(213.059673, 272.104348)"><g><path d="M 3.625 -0.796875 C 3.820312 -0.796875 4.015625 -0.8125 4.203125 -0.84375 C 4.390625 -0.875 4.539062 -0.90625 4.65625 -0.9375 L 4.65625 -0.0625 C 4.53125 -0.0078125 4.347656 0.0351562 4.109375 0.078125 C 3.867188 0.117188 3.648438 0.140625 3.453125 0.140625 C 2.003906 0.140625 1.28125 -0.625 1.28125 -2.15625 L 1.28125 -6.609375 L 0.21875 -6.609375 L 0.21875 -7.15625 L 1.28125 -7.625 L 1.765625 -9.234375 L 2.421875 -9.234375 L 2.421875 -7.5 L 4.59375 -7.5 L 4.59375 -6.609375 L 2.421875 -6.609375 L 2.421875 -2.203125 C 2.421875 -1.753906 2.523438 -1.40625 2.734375 -1.15625 C 2.953125 -0.914062 3.25 -0.796875 3.625 -0.796875 Z M 3.625 -0.796875 "/></g></g></g><g fill="#00bed8" fill-opacity="1"><g transform="translate(219.161313, 272.104348)"><g><path d="M 5.8125 0 L 5.578125 -1.0625 L 5.53125 -1.0625 C 5.15625 -0.59375 4.78125 -0.273438 4.40625 -0.109375 C 4.039062 0.0546875 3.578125 0.140625 3.015625 0.140625 C 2.273438 0.140625 1.691406 -0.0507812 1.265625 -0.4375 C 0.847656 -0.820312 0.640625 -1.367188 0.640625 -2.078125 C 0.640625 -3.585938 1.847656 -4.378906 4.265625 -4.453125 L 5.546875 -4.484375 L 5.546875 -4.953125 C 5.546875 -5.546875 5.414062 -5.976562 5.15625 -6.25 C 4.90625 -6.53125 4.503906 -6.671875 3.953125 -6.671875 C 3.328125 -6.671875 2.617188 -6.484375 1.828125 -6.109375 L 1.484375 -6.96875 C 1.847656 -7.175781 2.25 -7.332031 2.6875 -7.4375 C 3.132812 -7.550781 3.578125 -7.609375 4.015625 -7.609375 C 4.910156 -7.609375 5.570312 -7.410156 6 -7.015625 C 6.4375 -6.617188 6.65625 -5.984375 6.65625 -5.109375 L 6.65625 0 Z M 3.25 -0.796875 C 3.957031 -0.796875 4.507812 -0.988281 4.90625 -1.375 C 5.3125 -1.769531 5.515625 -2.316406 5.515625 -3.015625 L 5.515625 -3.6875 L 4.375 -3.640625 C 3.476562 -3.609375 2.828125 -3.46875 2.421875 -3.21875 C 2.023438 -2.96875 1.828125 -2.582031 1.828125 -2.0625 C 1.828125 -1.644531 1.953125 -1.328125 2.203125 -1.109375 C 2.453125 -0.898438 2.800781 -0.796875 3.25 -0.796875 Z M 3.25 -0.796875 "/></g></g></g><g fill="#00bed8" fill-opacity="1"><g transform="translate(228.105116, 272.104348)"><g><path d="M 4.625 -7.625 C 4.957031 -7.625 5.253906 -7.597656 5.515625 -7.546875 L 5.359375 -6.5 C 5.046875 -6.5625 4.773438 -6.59375 4.546875 -6.59375 C 3.929688 -6.59375 3.410156 -6.347656 2.984375 -5.859375 C 2.554688 -5.367188 2.34375 -4.753906 2.34375 -4.015625 L 2.34375 0 L 1.203125 0 L 1.203125 -7.5 L 2.140625 -7.5 L 2.265625 -6.109375 L 2.328125 -6.109375 C 2.597656 -6.597656 2.929688 -6.972656 3.328125 -7.234375 C 3.722656 -7.492188 4.15625 -7.625 4.625 -7.625 Z M 4.625 -7.625 "/></g></g></g><g fill="#00bed8" fill-opacity="1"><g transform="translate(234.97878, 272.104348)"><g><path d="M 2.34375 0 L 1.203125 0 L 1.203125 -7.5 L 2.34375 -7.5 Z M 1.109375 -9.515625 C 1.109375 -9.773438 1.171875 -9.96875 1.296875 -10.09375 C 1.421875 -10.21875 1.582031 -10.28125 1.78125 -10.28125 C 1.957031 -10.28125 2.113281 -10.21875 2.25 -10.09375 C 2.382812 -9.96875 2.453125 -9.773438 2.453125 -9.515625 C 2.453125 -9.265625 2.382812 -9.078125 2.25 -8.953125 C 2.113281 -8.828125 1.957031 -8.765625 1.78125 -8.765625 C 1.582031 -8.765625 1.421875 -8.828125 1.296875 -8.953125 C 1.171875 -9.078125 1.109375 -9.265625 1.109375 -9.515625 Z M 1.109375 -9.515625 "/></g></g></g><g fill="#00bed8" fill-opacity="1"><g transform="translate(239.67983, 272.104348)"><g><path d="M 5.8125 0 L 5.578125 -1.0625 L 5.53125 -1.0625 C 5.15625 -0.59375 4.78125 -0.273438 4.40625 -0.109375 C 4.039062 0.0546875 3.578125 0.140625 3.015625 0.140625 C 2.273438 0.140625 1.691406 -0.0507812 1.265625 -0.4375 C 0.847656 -0.820312 0.640625 -1.367188 0.640625 -2.078125 C 0.640625 -3.585938 1.847656 -4.378906 4.265625 -4.453125 L 5.546875 -4.484375 L 5.546875 -4.953125 C 5.546875 -5.546875 5.414062 -5.976562 5.15625 -6.25 C 4.90625 -6.53125 4.503906 -6.671875 3.953125 -6.671875 C 3.328125 -6.671875 2.617188 -6.484375 1.828125 -6.109375 L 1.484375 -6.96875 C 1.847656 -7.175781 2.25 -7.332031 2.6875 -7.4375 C 3.132812 -7.550781 3.578125 -7.609375 4.015625 -7.609375 C 4.910156 -7.609375 5.570312 -7.410156 6 -7.015625 C 6.4375 -6.617188 6.65625 -5.984375 6.65625 -5.109375 L 6.65625 0 Z M 3.25 -0.796875 C 3.957031 -0.796875 4.507812 -0.988281 4.90625 -1.375 C 5.3125 -1.769531 5.515625 -2.316406 5.515625 -3.015625 L 5.515625 -3.6875 L 4.375 -3.640625 C 3.476562 -3.609375 2.828125 -3.46875 2.421875 -3.21875 C 2.023438 -2.96875 1.828125 -2.582031 1.828125 -2.0625 C 1.828125 -1.644531 1.953125 -1.328125 2.203125 -1.109375 C 2.453125 -0.898438 2.800781 -0.796875 3.25 -0.796875 Z M 3.25 -0.796875 "/></g></g></g></svg>